<?xml version="1.0" encoding="UTF-8"?><svg id="b" xmlns="http://www.w3.org/2000/svg" viewBox="0 0 515.13 515.12"><g id="c"><path d="M307.96,0C264.9,0,229.58,35.13,229.58,78.39c0,7.74,1.79,15.08,3.97,22.42H117.67c-8.93,0-16.87,7.93-16.87,16.66v115.88c-7.14-2.18-14.68-3.77-22.42-3.77C35.32,229.59,0,264.91,0,307.96s35.32,78.38,78.38,78.38c7.74,0,15.28-1.79,22.42-3.97v115.88c0,8.93,7.94,16.87,16.87,16.87H498.45c8.73,0,16.67-7.94,16.67-16.87v-154.97c.2-7.14-4.76-14.09-11.51-16.27-6.95-2.18-14.88,.59-19.05,6.55-8.14,11.51-21.23,19.25-36.51,19.25-25,0-44.84-20.04-44.84-44.84s19.84-44.84,44.84-44.84c15.28,0,28.38,7.54,36.51,19.05,3.97,5.95,12.1,8.73,18.85,6.55,6.75-2.18,11.91-9.13,11.71-16.07V117.47c0-8.73-7.94-16.67-16.67-16.67h-116.08c2.18-7.34,3.97-14.68,3.97-22.42C386.34,35.12,351.02,0,307.96,0h0Zm0,33.54c25,0,44.84,19.84,44.84,44.84,0,10.91-3.77,20.64-10.12,28.38-4.17,4.76-5.16,12.1-2.38,17.86,2.58,5.75,8.93,9.72,15.28,9.72h126v102.98c-10.12-4.76-21.63-7.74-33.53-7.74-43.06,0-78.38,35.32-78.38,78.38s35.32,78.38,78.38,78.38c11.91,0,23.41-3.18,33.53-8.14v103.38H134.34v-126c0-6.35-3.77-12.5-9.52-15.28-5.75-2.58-13.1-1.79-17.86,2.18-7.74,6.55-17.66,10.32-28.57,10.32-25,0-44.84-20.04-44.84-44.84s19.84-44.84,44.84-44.84c10.91,0,20.84,3.77,28.57,10.12,4.76,3.97,12.1,4.96,17.86,2.18,5.75-2.58,9.52-8.73,9.52-15.08v-126h126c6.55,0,12.7-3.97,15.48-9.72,2.58-5.75,1.59-13.1-2.38-17.86-6.55-7.74-10.32-17.46-10.32-28.38,0-25,20.04-44.84,44.84-44.84h0Z"/></g></svg>